
      <svg data-logo="logo" xmlns="http://www.w3.org/2000/svg" viewBox="0 0 163 43">
        <g id="logogram" transform="translate(0, 1) rotate(0) "><path d="M24.2071 0.429993L28.9214 4.35857L24.8473 7.75366C24.4764 8.0627 23.9378 8.0627 23.5669 7.75366L19.4928 4.35857L24.2071 0.429993Z" fill="#00067F"/><path fill-rule="evenodd" clip-rule="evenodd" d="M23.5669 11.7844C23.9378 12.0935 24.4764 12.0935 24.8473 11.7844L31.3398 6.37397L35.0743 9.48605L26.7678 16.4081C25.2845 17.6443 23.1297 17.6443 21.6463 16.4081L13.3399 9.48605L17.0744 6.37397L23.5669 11.7844Z" fill="#00067F"/><path d="M24.2071 40.43L19.4928 36.5014L23.5669 33.1063C23.9378 32.7973 24.4764 32.7973 24.8473 33.1063L28.9214 36.5014L24.2071 40.43Z" fill="#00067F"/><path fill-rule="evenodd" clip-rule="evenodd" d="M24.8473 29.0755C24.4764 28.7665 23.9378 28.7665 23.5669 29.0755L17.0744 34.486L13.3399 31.3739L21.6463 24.4518C23.1297 23.2157 25.2845 23.2157 26.7678 24.4518L35.0743 31.3739L31.3398 34.486L24.8473 29.0755Z" fill="#00067F"/><path d="M48.207 20.43L43.4928 16.5014L39.7004 19.6618C39.2206 20.0616 39.2206 20.7984 39.7004 21.1982L43.4928 24.3586L48.207 20.43Z" fill="#00067F"/><path fill-rule="evenodd" clip-rule="evenodd" d="M34.8634 21.1982C34.3837 20.7984 34.3837 20.0616 34.8634 19.6618L41.0743 14.486L37.3398 11.3739L30.16 17.3571C28.241 18.9563 28.241 21.9037 30.16 23.5029L37.3398 29.4861L41.0743 26.374L34.8634 21.1982Z" fill="#00067F"/><path d="M0.207031 20.4301L4.9213 24.3587L8.71371 21.1983C9.19346 20.7985 9.19346 20.0617 8.71371 19.6619L4.9213 16.5015L0.207031 20.4301Z" fill="#00067F"/><path fill-rule="evenodd" clip-rule="evenodd" d="M13.5506 19.6619C14.0304 20.0617 14.0304 20.7985 13.5506 21.1983L7.33976 26.3741L11.0742 29.4862L18.254 23.503C20.173 21.9038 20.173 18.9564 18.254 17.3572L11.0742 11.374L7.33976 14.4861L13.5506 19.6619Z" fill="#00067F"/></g>
        <g id="logotype" transform="translate(50, 8.5)"><path fill="#00067F" d="M11.22 25L2.42 25Q2.13 25 1.98 24.66Q1.84 24.32 1.84 24.13L1.84 24.13Q1.84 23.56 2.40 23.50L2.40 23.50Q2.95 23.44 3.69 23.33Q4.44 23.21 5.00 22.91Q5.56 22.61 5.56 22.06L5.56 22.06L5.56 4.83Q5.56 4.10 4.96 3.54Q4.37 2.99 3.60 2.65Q2.83 2.30 2.30 2.25L2.30 2.25Q1.94 2.22 1.81 2.11Q1.68 2.00 1.68 1.62L1.68 1.62Q1.68 1.43 1.83 1.09Q1.97 0.75 2.26 0.75L2.26 0.75L10.60 0.75L24.45 17.02L24.65 17.02L24.65 3.91Q24.65 3.18 24.09 2.85Q23.52 2.53 22.80 2.42Q22.07 2.30 21.54 2.25L21.54 2.25Q21.18 2.22 21.05 2.11Q20.93 2.00 20.93 1.62L20.93 1.62Q20.93 1.43 21.07 1.09Q21.22 0.75 21.51 0.75L21.51 0.75L29.63 0.75Q29.92 0.75 30.06 1.09Q30.21 1.43 30.21 1.62L30.21 1.62Q30.21 2.19 29.64 2.25L29.64 2.25Q29.13 2.30 28.42 2.46Q27.71 2.61 27.18 2.93Q26.65 3.24 26.65 3.83L26.65 3.83L26.65 23.07Q26.65 23.39 26.69 23.61Q26.72 23.82 26.75 24.32L26.75 24.32Q26.81 24.98 26.10 25.25Q25.40 25.51 24.87 25.51L24.87 25.51Q24.26 25.51 23.95 25.14L23.95 25.14L8.02 6.37L7.73 6.37L7.73 21.84Q7.73 22.57 8.38 22.90Q9.03 23.22 9.85 23.33Q10.67 23.43 11.19 23.50L11.19 23.50Q11.54 23.53 11.67 23.63Q11.80 23.74 11.80 24.13L11.80 24.13Q11.80 24.32 11.66 24.66Q11.51 25 11.22 25L11.22 25ZM41.49 25.50L41.49 25.50Q36.41 25.50 34.06 23.09Q31.70 20.69 31.70 16.42L31.70 16.42Q31.70 13.57 33.02 11.62Q34.35 9.67 36.52 8.67Q38.69 7.67 41.22 7.67L41.22 7.67Q43.86 7.67 45.51 8.37Q47.16 9.07 48.04 10.37Q48.92 11.67 49.21 13.48L49.21 13.48Q49.32 14.10 49.34 14.85Q49.37 15.60 49.37 16.30L49.37 16.30L37.51 16.32Q37.51 18.95 38.33 20.45Q39.15 21.96 40.37 22.58Q41.59 23.21 42.79 23.21L42.79 23.21Q44.33 23.21 45.40 22.80Q46.48 22.40 47.30 21.45L47.30 21.45Q47.39 21.36 47.48 21.26Q47.57 21.15 47.74 21.19L47.74 21.19L48.50 21.55Q48.67 21.62 48.67 21.75L48.67 21.75Q48.67 21.82 48.64 21.89Q48.62 21.96 48.56 22.04L48.56 22.04Q47.69 23.56 45.94 24.53Q44.19 25.50 41.49 25.50ZM37.56 14.73L37.56 14.73L43.68 14.73Q43.68 11.76 43.08 10.44Q42.48 9.12 41.16 9.12L41.16 9.12Q40.33 9.12 39.56 9.68Q38.79 10.23 38.26 11.46Q37.73 12.70 37.56 14.73ZM57.97 25L51.66 25Q51.37 25 51.23 24.74Q51.08 24.49 51.08 24.30L51.08 24.30Q51.08 23.67 51.64 23.67L51.64 23.67Q52.52 23.67 53.16 23.14Q53.81 22.61 54.26 22.13L54.26 22.13L58.21 16.87L53.40 10.87Q52.77 10.08 52.42 9.77Q52.07 9.47 51.42 9.38L51.42 9.38Q51.15 9.35 51.00 9.23Q50.86 9.12 50.86 8.75L50.86 8.75Q50.86 8.56 51.00 8.29Q51.15 8.01 51.44 8.01L51.44 8.01L60.68 8.01Q60.97 8.01 61.12 8.29Q61.27 8.56 61.27 8.75L61.27 8.75Q61.27 9.02 61.17 9.18Q61.08 9.35 60.74 9.38L60.74 9.38Q60.33 9.43 59.98 9.47Q59.62 9.50 59.62 9.77L59.62 9.77Q59.62 9.86 59.66 10.01Q59.69 10.17 59.81 10.35L59.81 10.35L62.70 14.68L65.73 10.54Q65.98 10.25 65.98 10.06L65.98 10.06Q65.98 9.74 65.53 9.58Q65.08 9.43 64.43 9.38L64.43 9.38Q64.10 9.35 64.00 9.18Q63.90 9.02 63.90 8.75L63.90 8.75Q63.90 8.56 64.04 8.29Q64.19 8.01 64.48 8.01L64.48 8.01L70.34 8.01Q70.63 8.01 70.78 8.29Q70.92 8.56 70.92 8.75L70.92 8.75Q70.92 9.38 70.36 9.38L70.36 9.38Q69.49 9.38 68.88 9.82Q68.27 10.27 67.84 10.87L67.84 10.87L64.05 16.23L68.85 22.18Q69.35 22.81 69.61 23.20Q69.88 23.58 70.51 23.67L70.51 23.67Q70.80 23.70 70.97 23.81Q71.14 23.92 71.14 24.30L71.14 24.30Q71.14 24.49 71.00 24.74Q70.85 25 70.56 25L70.56 25L61.66 25Q61.37 25 61.22 24.74Q61.08 24.49 61.08 24.30L61.08 24.30Q61.08 24.03 61.17 23.86Q61.27 23.70 61.61 23.67L61.61 23.67Q62.00 23.63 62.36 23.55Q62.72 23.46 62.72 23.19L62.72 23.19Q62.72 23.00 62.53 22.74L62.53 22.74L59.30 18.40L56.38 22.50Q56.21 22.69 56.21 22.86L56.21 22.86Q56.21 23.24 56.89 23.44Q57.57 23.63 58.02 23.67L58.02 23.67Q58.36 23.70 58.45 23.86Q58.55 24.03 58.55 24.30L58.55 24.30Q58.55 24.49 58.40 24.74Q58.26 25 57.97 25L57.97 25ZM80.41 25.46L80.41 25.46Q78.79 25.46 77.48 25.08Q76.17 24.69 75.42 23.60Q74.67 22.50 74.67 20.39L74.67 20.39L74.67 11.00Q74.67 10.27 74.37 9.94Q74.07 9.60 73.64 9.49Q73.21 9.38 72.79 9.35L72.79 9.35Q72.43 9.31 72.30 9.20Q72.17 9.09 72.17 8.71L72.17 8.71Q72.17 8.53 72.33 8.27Q72.48 8.01 72.75 8.01L72.75 8.01L79.44 8.01Q80.07 8.01 80.07 8.63L80.07 8.63L80.07 18.83Q80.07 20.01 80.25 20.91Q80.43 21.80 80.85 22.32Q81.26 22.83 81.96 22.83L81.96 22.83Q83.43 22.83 84.46 22.33Q85.48 21.82 86.32 20.93L86.32 20.93L86.32 11.00Q86.32 10.27 85.95 9.94Q85.57 9.60 85.01 9.49Q84.44 9.38 83.90 9.35L83.90 9.35Q83.54 9.31 83.41 9.20Q83.28 9.09 83.28 8.71L83.28 8.71Q83.28 8.53 83.43 8.27Q83.57 8.01 83.86 8.01L83.86 8.01L91.09 8.01Q91.72 8.01 91.72 8.63L91.72 8.63L91.72 21.21Q91.72 22.40 91.96 22.69Q92.20 22.98 92.47 22.98L92.47 22.98Q92.71 22.98 92.95 22.96Q93.19 22.93 93.36 22.85L93.36 22.85Q93.65 22.71 93.84 23.20Q94.03 23.68 94.03 24.08L94.03 24.08Q94.03 24.32 93.94 24.37L93.94 24.37Q93.57 24.62 92.38 25.03Q91.19 25.43 89.04 25.43L89.04 25.43Q87.91 25.43 87.39 24.89Q86.87 24.35 86.74 23.66Q86.61 22.97 86.61 22.49L86.61 22.49Q86.07 23.26 85.08 23.94Q84.10 24.62 82.88 25.04Q81.66 25.46 80.41 25.46ZM104.06 25.51L104.06 25.51Q102.63 25.51 101.50 25.11Q100.37 24.71 99.91 24.49L99.91 24.49Q99.64 24.35 99.38 24.35L99.38 24.35Q98.92 24.35 98.76 24.54Q98.60 24.73 98.43 24.91Q98.25 25.10 97.76 25.10L97.76 25.10Q97.43 25.10 97.16 24.96Q96.89 24.81 96.89 24.59L96.89 24.59Q96.89 24.38 96.86 23.70Q96.84 23.02 96.81 22.16Q96.78 21.31 96.76 20.55Q96.73 19.79 96.73 19.43L96.73 19.43Q96.73 19.04 97.02 18.86Q97.30 18.69 97.62 18.69L97.62 18.69Q98.31 18.69 98.41 19.07L98.41 19.07Q98.51 19.45 98.69 19.95Q98.87 20.45 99.28 21.31L99.28 21.31Q99.52 21.79 100.08 22.44Q100.65 23.09 101.59 23.57Q102.53 24.06 103.86 24.06L103.86 24.06Q105.28 24.06 106.10 23.57Q106.92 23.09 106.92 22.11L106.92 22.11Q106.92 21.34 106.47 20.74Q106.01 20.15 104.92 19.57Q103.83 19.00 101.88 18.32L101.88 18.32Q100.78 17.92 99.68 17.25Q98.58 16.57 97.84 15.52Q97.09 14.47 97.09 12.99L97.09 12.99Q97.09 11.48 98.05 10.29Q99.01 9.09 100.65 8.38Q102.29 7.67 104.36 7.67L104.36 7.67Q105.98 7.67 107.02 8.13Q108.06 8.59 108.44 8.59L108.44 8.59Q108.82 8.59 108.88 8.41Q108.94 8.22 109.04 8.03L109.04 8.03Q109.14 7.84 109.38 7.76Q109.62 7.67 109.88 7.67L109.88 7.67Q110.25 7.67 110.55 7.82Q110.85 7.98 110.85 8.27L110.85 8.27Q110.85 8.42 110.82 9.11Q110.80 9.79 110.80 10.59L110.80 10.59Q110.80 11.09 110.84 11.58Q110.88 12.08 110.88 12.47L110.88 12.47Q110.88 12.99 110.61 13.20Q110.34 13.41 109.98 13.41L109.98 13.41Q109.35 13.41 109.23 13.07L109.23 13.07Q108.99 12.34 108.52 11.42Q108.05 10.51 107.12 9.82Q106.18 9.14 104.56 9.14L104.56 9.14Q104.01 9.14 103.42 9.30Q102.83 9.47 102.43 9.88Q102.03 10.29 102.03 11.02L102.03 11.02Q102.03 12.20 102.97 12.91Q103.91 13.62 105.89 14.27L105.89 14.27Q107.50 14.80 108.94 15.55Q110.37 16.30 111.28 17.43Q112.18 18.56 112.18 20.23L112.18 20.23Q112.18 22.81 110.09 24.16Q108.00 25.51 104.06 25.51Z"/></g>
        
      </svg>
    